<svg xmlns="http://www.w3.org/2000/svg" xmlns:xlink="http://www.w3.org/1999/xlink" width="500" zoomAndPan="magnify" viewBox="0 0 375 112.499997" height="150" preserveAspectRatio="xMidYMid meet" version="1.0"><defs><g/><clipPath id="156fc809ad"><path d="M 121.265625 50 L 356 50 L 356 73 L 121.265625 73 Z M 121.265625 50 " clip-rule="nonzero"/></clipPath><clipPath id="d5a527c6a3"><path d="M 0.828125 6 L 124 6 L 124 106 L 0.828125 106 Z M 0.828125 6 " clip-rule="nonzero"/></clipPath></defs><g clip-path="url(#156fc809ad)"><path fill="#000000" d="M 122.8125 63.707031 C 122.164062 64.71875 121.285156 63.921875 121.847656 63.03125 C 142.53125 30.304688 155.507812 74.703125 197.089844 70.976562 C 261.117188 65.234375 314.636719 46.917969 354.472656 62.691406 C 357.25 63.789062 355.296875 66.097656 352.957031 65.019531 C 319.800781 49.753906 258.207031 65.738281 196.8125 72.214844 C 155.210938 76.597656 143.453125 31.511719 122.8125 63.707031 Z M 122.8125 63.707031 " fill-opacity="1" fill-rule="nonzero"/></g><g clip-path="url(#d5a527c6a3)"><g fill="#000000" fill-opacity="1"><g transform="translate(0.829651, 78.5815)"><g><path d="M 49.28125 24.191406 C 50.476562 26.957031 54.132812 26.730469 53.761719 23.371094 C 52.941406 15.980469 58.242188 -4.929688 61.152344 -25.3125 L 61.226562 -25.3125 C 69.964844 -54.882812 80.566406 -68.695312 90.796875 -68.546875 C 109.761719 -68.246094 100.28125 -23.96875 70.859375 -20.085938 C 70.039062 -19.863281 70.261719 -19.191406 70.933594 -19.191406 C 90.273438 -16.578125 70.859375 21.207031 88.707031 21.878906 C 96.621094 22.175781 110.433594 2.613281 123.054688 -17.621094 C 122.976562 -18.441406 122.007812 -18.144531 121.785156 -17.769531 C 111.628906 -2.015625 96.320312 20.460938 89.226562 20.460938 C 79.597656 20.460938 91.84375 -12.769531 73.546875 -19.636719 C 106.777344 -23.894531 114.539062 -70.1875 90.871094 -69.890625 C 78.328125 -69.738281 69.589844 -53.984375 62.347656 -34.71875 C 64.289062 -53.984375 62.648438 -70.5625 49.804688 -71.457031 C 35.691406 -72.429688 23.894531 -55.328125 23.96875 -37.335938 C 5.527344 -45.25 -5.226562 -30.089844 2.464844 -17.546875 L 4.40625 -17.546875 C -3.808594 -27.925781 4.40625 -44.054688 23.820312 -36.289062 C 24.117188 -19.265625 30.613281 -12.097656 36.289062 -12.84375 C 41.664062 -13.589844 45.695312 -26.582031 25.460938 -36.960938 C 24.9375 -52.941406 36.066406 -71.832031 49.804688 -70.261719 C 74.96875 -67.425781 43.753906 11.5 49.28125 24.191406 Z M 36.738281 -13.886719 C 32.480469 -12.917969 26.28125 -16.652344 25.238281 -35.691406 C 43.234375 -26.058594 40.171875 -14.710938 36.738281 -13.886719 Z M 36.738281 -13.886719 "/></g></g></g></g><g fill="#000000" fill-opacity="1"><g transform="translate(151.00112, 100.253327)"><g><path d="M 7.90625 0 L 5.21875 -4.203125 C 5.132812 -4.191406 5.007812 -4.1875 4.84375 -4.1875 L 3.15625 -4.1875 L 3.15625 0 L 1.640625 0 L 1.640625 -11.375 L 4.671875 -11.375 C 5.453125 -11.375 6.144531 -11.238281 6.75 -10.96875 C 7.351562 -10.695312 7.828125 -10.296875 8.171875 -9.765625 C 8.523438 -9.234375 8.703125 -8.59375 8.703125 -7.84375 C 8.703125 -7.144531 8.546875 -6.5 8.234375 -5.90625 C 7.921875 -5.320312 7.445312 -4.878906 6.8125 -4.578125 L 9.671875 0 Z M 4.8125 -5.671875 C 5.632812 -5.671875 6.222656 -5.882812 6.578125 -6.3125 C 6.941406 -6.738281 7.125 -7.226562 7.125 -7.78125 C 7.125 -8.125 7.046875 -8.457031 6.890625 -8.78125 C 6.742188 -9.101562 6.503906 -9.367188 6.171875 -9.578125 C 5.847656 -9.796875 5.429688 -9.90625 4.921875 -9.90625 L 3.15625 -9.90625 L 3.15625 -5.671875 Z M 4.8125 -5.671875 "/></g></g></g><g fill="#000000" fill-opacity="1"><g transform="translate(165.430931, 100.253327)"><g><path d="M 3.015625 -4.03125 C 3.015625 -3.519531 3.132812 -3.0625 3.375 -2.65625 C 3.625 -2.257812 3.953125 -1.941406 4.359375 -1.703125 C 4.773438 -1.472656 5.238281 -1.359375 5.75 -1.359375 C 6.269531 -1.359375 6.738281 -1.472656 7.15625 -1.703125 C 7.582031 -1.929688 7.914062 -2.25 8.15625 -2.65625 C 8.40625 -3.0625 8.53125 -3.519531 8.53125 -4.03125 L 8.53125 -11.375 L 10.015625 -11.375 L 10.015625 -3.984375 C 10.015625 -3.171875 9.828125 -2.453125 9.453125 -1.828125 C 9.078125 -1.203125 8.5625 -0.71875 7.90625 -0.375 C 7.257812 -0.0390625 6.539062 0.125 5.75 0.125 C 4.957031 0.125 4.234375 -0.0390625 3.578125 -0.375 C 2.929688 -0.71875 2.421875 -1.203125 2.046875 -1.828125 C 1.679688 -2.453125 1.5 -3.171875 1.5 -3.984375 L 1.5 -11.375 L 3.015625 -11.375 Z M 3.015625 -4.03125 "/></g></g></g><g fill="#000000" fill-opacity="1"><g transform="translate(180.993709, 100.253327)"><g><path d="M 10.5625 -0.96875 C 10.207031 -0.695312 9.660156 -0.445312 8.921875 -0.21875 C 8.179688 0.0078125 7.5 0.125 6.875 0.125 C 5.6875 0.125 4.640625 -0.117188 3.734375 -0.609375 C 2.835938 -1.097656 2.144531 -1.765625 1.65625 -2.609375 C 1.164062 -3.460938 0.921875 -4.414062 0.921875 -5.46875 C 0.921875 -6.707031 1.179688 -7.78125 1.703125 -8.6875 C 2.234375 -9.59375 2.941406 -10.285156 3.828125 -10.765625 C 4.722656 -11.253906 5.703125 -11.5 6.765625 -11.5 C 7.398438 -11.5 8 -11.421875 8.5625 -11.265625 C 9.132812 -11.117188 9.644531 -10.921875 10.09375 -10.671875 L 9.59375 -9.265625 C 9.257812 -9.453125 8.835938 -9.613281 8.328125 -9.75 C 7.816406 -9.894531 7.359375 -9.96875 6.953125 -9.96875 C 6.078125 -9.96875 5.300781 -9.789062 4.625 -9.4375 C 3.945312 -9.082031 3.421875 -8.570312 3.046875 -7.90625 C 2.679688 -7.25 2.5 -6.476562 2.5 -5.59375 C 2.5 -4.78125 2.679688 -4.050781 3.046875 -3.40625 C 3.421875 -2.769531 3.941406 -2.273438 4.609375 -1.921875 C 5.285156 -1.578125 6.050781 -1.40625 6.90625 -1.40625 C 7.300781 -1.40625 7.6875 -1.441406 8.0625 -1.515625 C 8.445312 -1.597656 8.765625 -1.710938 9.015625 -1.859375 L 9.015625 -4.109375 L 6.75 -4.109375 L 6.75 -5.5625 L 10.5625 -5.5625 Z M 10.5625 -0.96875 "/></g></g></g><g fill="#000000" fill-opacity="1"><g transform="translate(196.871202, 100.253327)"><g><path d="M 10.65625 0 L 9.125 0 L 9.125 -4.984375 L 3.15625 -4.984375 L 3.15625 0 L 1.640625 0 L 1.640625 -11.375 L 3.15625 -11.375 L 3.15625 -6.453125 L 9.125 -6.453125 L 9.125 -11.375 L 10.65625 -11.375 Z M 10.65625 0 "/></g></g></g><g fill="#000000" fill-opacity="1"><g transform="translate(213.205031, 100.253327)"><g/></g></g><g fill="#000000" fill-opacity="1"><g transform="translate(222.221768, 100.253327)"><g><path d="M 1.640625 -11.375 L 4.75 -11.375 C 6.164062 -11.375 7.335938 -11.09375 8.265625 -10.53125 C 9.191406 -9.96875 9.867188 -9.242188 10.296875 -8.359375 C 10.722656 -7.472656 10.9375 -6.535156 10.9375 -5.546875 C 10.9375 -4.453125 10.675781 -3.484375 10.15625 -2.640625 C 9.644531 -1.796875 8.957031 -1.144531 8.09375 -0.6875 C 7.238281 -0.226562 6.304688 0 5.296875 0 L 1.640625 0 Z M 5 -1.484375 C 5.84375 -1.484375 6.59375 -1.644531 7.25 -1.96875 C 7.914062 -2.300781 8.429688 -2.78125 8.796875 -3.40625 C 9.171875 -4.039062 9.359375 -4.796875 9.359375 -5.671875 C 9.359375 -6.554688 9.164062 -7.316406 8.78125 -7.953125 C 8.394531 -8.597656 7.878906 -9.082031 7.234375 -9.40625 C 6.585938 -9.738281 5.890625 -9.90625 5.140625 -9.90625 L 3.15625 -9.90625 L 3.15625 -1.484375 Z M 5 -1.484375 "/></g></g></g><g fill="#000000" fill-opacity="1"><g transform="translate(238.130732, 100.253327)"><g><path d="M 9.03125 -11.375 L 9.03125 -9.90625 L 3.15625 -9.90625 L 3.15625 -6.453125 L 8.40625 -6.453125 L 8.40625 -4.984375 L 3.15625 -4.984375 L 3.15625 -1.484375 L 9.25 -1.484375 L 9.25 0 L 1.640625 0 L 1.640625 -11.375 Z M 9.03125 -11.375 "/></g></g></g><g fill="#000000" fill-opacity="1"><g transform="translate(252.450394, 100.253327)"><g><path d="M 7.515625 -9.34375 C 7.109375 -9.5625 6.671875 -9.738281 6.203125 -9.875 C 5.742188 -10.007812 5.3125 -10.078125 4.90625 -10.078125 C 4.289062 -10.078125 3.800781 -9.9375 3.4375 -9.65625 C 3.070312 -9.382812 2.890625 -9.007812 2.890625 -8.53125 C 2.890625 -8.050781 3.101562 -7.660156 3.53125 -7.359375 C 3.957031 -7.066406 4.5625 -6.773438 5.34375 -6.484375 C 5.9375 -6.273438 6.429688 -6.046875 6.828125 -5.796875 C 7.234375 -5.546875 7.570312 -5.203125 7.84375 -4.765625 C 8.113281 -4.335938 8.25 -3.785156 8.25 -3.109375 C 8.25 -2.503906 8.09375 -1.953125 7.78125 -1.453125 C 7.476562 -0.960938 7.046875 -0.578125 6.484375 -0.296875 C 5.929688 -0.015625 5.273438 0.125 4.515625 0.125 C 3.816406 0.125 3.140625 0.015625 2.484375 -0.203125 C 1.835938 -0.429688 1.265625 -0.71875 0.765625 -1.0625 L 1.453125 -2.28125 C 1.835938 -1.988281 2.300781 -1.738281 2.84375 -1.53125 C 3.394531 -1.332031 3.90625 -1.234375 4.375 -1.234375 C 4.976562 -1.234375 5.507812 -1.390625 5.96875 -1.703125 C 6.425781 -2.015625 6.65625 -2.476562 6.65625 -3.09375 C 6.65625 -3.625 6.460938 -4.039062 6.078125 -4.34375 C 5.691406 -4.65625 5.15625 -4.945312 4.46875 -5.21875 C 3.832031 -5.457031 3.300781 -5.691406 2.875 -5.921875 C 2.445312 -6.160156 2.082031 -6.476562 1.78125 -6.875 C 1.476562 -7.28125 1.328125 -7.789062 1.328125 -8.40625 C 1.328125 -9.289062 1.632812 -10.007812 2.25 -10.5625 C 2.875 -11.113281 3.6875 -11.40625 4.6875 -11.4375 C 5.914062 -11.4375 7.054688 -11.132812 8.109375 -10.53125 Z M 7.515625 -9.34375 "/></g></g></g><g fill="#000000" fill-opacity="1"><g transform="translate(265.652815, 100.253327)"><g><path d="M 3.15625 -11.375 L 3.15625 0 L 1.640625 0 L 1.640625 -11.375 Z M 3.15625 -11.375 "/></g></g></g><g fill="#000000" fill-opacity="1"><g transform="translate(274.49647, 100.253327)"><g><path d="M 10.5625 -0.96875 C 10.207031 -0.695312 9.660156 -0.445312 8.921875 -0.21875 C 8.179688 0.0078125 7.5 0.125 6.875 0.125 C 5.6875 0.125 4.640625 -0.117188 3.734375 -0.609375 C 2.835938 -1.097656 2.144531 -1.765625 1.65625 -2.609375 C 1.164062 -3.460938 0.921875 -4.414062 0.921875 -5.46875 C 0.921875 -6.707031 1.179688 -7.78125 1.703125 -8.6875 C 2.234375 -9.59375 2.941406 -10.285156 3.828125 -10.765625 C 4.722656 -11.253906 5.703125 -11.5 6.765625 -11.5 C 7.398438 -11.5 8 -11.421875 8.5625 -11.265625 C 9.132812 -11.117188 9.644531 -10.921875 10.09375 -10.671875 L 9.59375 -9.265625 C 9.257812 -9.453125 8.835938 -9.613281 8.328125 -9.75 C 7.816406 -9.894531 7.359375 -9.96875 6.953125 -9.96875 C 6.078125 -9.96875 5.300781 -9.789062 4.625 -9.4375 C 3.945312 -9.082031 3.421875 -8.570312 3.046875 -7.90625 C 2.679688 -7.25 2.5 -6.476562 2.5 -5.59375 C 2.5 -4.78125 2.679688 -4.050781 3.046875 -3.40625 C 3.421875 -2.769531 3.941406 -2.273438 4.609375 -1.921875 C 5.285156 -1.578125 6.050781 -1.40625 6.90625 -1.40625 C 7.300781 -1.40625 7.6875 -1.441406 8.0625 -1.515625 C 8.445312 -1.597656 8.765625 -1.710938 9.015625 -1.859375 L 9.015625 -4.109375 L 6.75 -4.109375 L 6.75 -5.5625 L 10.5625 -5.5625 Z M 10.5625 -0.96875 "/></g></g></g><g fill="#000000" fill-opacity="1"><g transform="translate(290.373959, 100.253327)"><g><path d="M 11.546875 -11.375 L 11.546875 0.375 L 11.5 0.375 L 3.140625 -8.109375 L 3.171875 0 L 1.640625 0 L 1.640625 -11.71875 L 1.71875 -11.71875 L 10.046875 -3.140625 L 10.015625 -11.375 Z M 11.546875 -11.375 "/></g></g></g></svg>